<?xml version="1.0" standalone="no"?>
<!DOCTYPE svg PUBLIC "-//W3C//DTD SVG 20010904//EN"
 "http://www.w3.org/TR/2001/REC-SVG-20010904/DTD/svg10.dtd">
<svg version="1.0" xmlns="http://www.w3.org/2000/svg"
 width="364.000000pt" height="364.000000pt" viewBox="0 0 364.000000 364.000000"
 preserveAspectRatio="xMidYMid meet">
<metadata>
Created by potrace 1.11, written by Peter Selinger 2001-2013
</metadata>
<g transform="translate(0.000000,364.000000) scale(0.100000,-0.100000)"
fill="#000000" stroke="none">
<path d="M1710 3371 c0 -8 -3 -11 -6 -8 -4 3 -16 2 -27 -4 -10 -6 -17 -7 -14
-2 3 4 -12 8 -34 8 -38 0 -51 -8 -26 -18 9 -4 9 -6 0 -6 -6 -1 -15 4 -18 9 -3
6 -14 10 -23 10 -15 0 -15 -2 -2 -11 12 -8 9 -9 -12 -5 -17 4 -28 2 -28 -4 0
-6 -5 -8 -10 -5 -6 4 -18 1 -27 -7 -12 -9 -15 -9 -9 0 4 6 3 12 -3 12 -5 0
-13 -4 -16 -10 -3 -5 -12 -10 -18 -10 -7 0 -6 4 3 11 12 9 12 10 -3 5 -10 -3
-21 -6 -23 -6 -3 0 -3 -4 0 -8 3 -5 -12 -8 -33 -7 -28 1 -38 -2 -34 -11 3 -9
-2 -12 -15 -9 -12 2 -26 -3 -33 -11 -6 -8 -19 -14 -28 -14 -9 0 -23 -6 -30
-12 -11 -10 -13 -10 -7 0 4 6 2 12 -3 12 -6 0 -11 -4 -11 -10 0 -5 -9 -10 -20
-10 -11 0 -20 -5 -20 -11 0 -5 -5 -7 -10 -4 -6 3 -13 -1 -16 -9 -3 -9 -10 -13
-15 -10 -5 3 -7 10 -4 15 10 15 -2 10 -16 -8 -12 -14 -12 -16 0 -8 9 5 12 4 7
-3 -4 -6 -13 -9 -21 -5 -8 3 -15 0 -15 -6 0 -6 -18 -19 -40 -28 -22 -10 -40
-22 -40 -28 0 -5 -5 -3 -10 5 -8 13 -10 12 -10 -2 0 -10 -7 -18 -16 -18 -8 0
-12 -4 -9 -10 3 -5 1 -10 -4 -10 -6 0 -11 6 -12 13 0 6 -5 2 -11 -11 -7 -13
-17 -21 -25 -18 -7 3 -13 -1 -13 -8 0 -8 -9 -16 -21 -19 -14 -4 -18 -10 -13
-19 4 -7 3 -10 -1 -5 -5 4 -17 -1 -28 -10 -10 -10 -22 -17 -25 -15 -4 2 -8 -2
-11 -9 -2 -7 1 -9 9 -4 9 5 11 4 6 -4 -6 -9 -11 -9 -24 1 -13 11 -14 11 -7 -1
6 -11 4 -13 -10 -7 -15 5 -16 4 -5 -9 11 -13 11 -16 -1 -13 -8 2 -13 -3 -11
-10 1 -8 -2 -11 -8 -7 -5 3 -13 -1 -16 -9 -3 -9 -10 -13 -15 -10 -5 3 -9 -2
-9 -11 0 -9 -4 -13 -10 -10 -6 3 -10 -4 -11 -17 0 -13 -3 -18 -6 -11 -3 10 -7
10 -18 0 -9 -9 -10 -14 -1 -19 7 -5 5 -8 -6 -8 -10 0 -18 -8 -18 -17 0 -15 -2
-16 -10 -3 -7 11 -10 12 -10 2 0 -20 -36 -63 -45 -54 -5 4 -5 -1 -2 -10 4 -12
1 -18 -8 -18 -8 0 -15 -9 -15 -20 0 -11 -5 -19 -12 -17 -7 1 -12 -7 -13 -18 0
-12 -6 -19 -14 -17 -9 2 -12 -4 -8 -19 3 -11 3 -18 0 -15 -8 8 -43 -24 -43
-39 0 -7 -9 -20 -20 -30 -16 -15 -18 -21 -7 -33 10 -13 9 -15 -7 -9 -17 7 -17
6 -5 -10 9 -11 10 -14 1 -9 -8 5 -12 0 -12 -14 0 -12 -4 -18 -10 -15 -5 3 -10
-3 -10 -14 0 -12 -6 -21 -12 -21 -9 0 -8 -4 2 -10 8 -5 10 -10 5 -10 -6 0 -16
-9 -23 -21 -8 -12 -9 -18 -3 -15 7 4 8 1 5 -8 -3 -9 -11 -13 -17 -9 -6 4 -8
-2 -5 -14 3 -12 2 -27 -3 -34 -7 -12 -9 -11 -9 1 -1 8 -6 4 -11 -10 -8 -20
-12 -22 -19 -10 -9 13 -10 13 -10 0 0 -9 -3 -11 -8 -5 -8 12 -83 15 -76 3 3
-4 0 -8 -5 -8 -6 0 -11 4 -11 8 0 4 -15 8 -34 8 -19 0 -32 -4 -30 -8 3 -4 0
-8 -5 -8 -6 0 -11 4 -11 9 0 10 -19 9 -37 -2 -8 -5 -13 -3 -13 4 0 7 -7 4 -15
-7 -15 -18 -15 -18 -8 0 4 13 3 17 -5 12 -15 -9 -16 -103 0 -112 7 -4 8 -3 4
4 -4 7 -2 12 3 12 6 0 11 -4 11 -8 0 -5 14 -9 30 -9 20 0 26 3 18 9 -9 5 -5 8
13 8 14 0 31 -6 38 -12 11 -10 13 -10 7 0 -4 6 -3 12 3 12 5 0 12 -6 14 -12 4
-10 6 -10 6 0 1 6 9 12 19 12 14 0 15 -2 2 -10 -10 -6 -6 -8 15 -6 17 1 36 5
43 9 7 5 12 3 12 -4 0 -8 4 -9 13 0 11 8 14 4 14 -23 0 -23 -4 -33 -13 -29 -8
3 -12 -5 -12 -24 2 -72 -2 -94 -14 -87 -8 5 -7 0 2 -11 9 -11 10 -16 3 -11
-10 5 -13 -10 -13 -64 0 -48 -3 -69 -11 -65 -6 4 -5 -3 3 -14 11 -18 11 -23
-2 -31 -10 -6 -11 -10 -2 -10 6 0 12 -5 12 -11 0 -5 -4 -8 -8 -5 -5 3 -9 -1
-9 -9 0 -8 4 -12 7 -10 4 3 8 -6 8 -20 0 -14 -4 -23 -8 -20 -3 2 -7 -2 -7 -10
0 -8 4 -12 9 -9 4 3 8 0 8 -5 0 -6 -6 -11 -12 -11 -9 0 -8 -4 2 -10 13 -9 13
-11 0 -20 -10 -6 -11 -10 -2 -10 8 0 12 -16 12 -48 0 -26 6 -54 13 -61 9 -11
9 -13 0 -7 -7 4 -13 2 -13 -3 0 -6 5 -11 11 -11 8 0 7 -6 -2 -17 -10 -11 -10
-14 -1 -9 12 7 13 4 15 -51 1 -17 5 -29 9 -27 4 3 9 0 9 -5 1 -6 2 -17 3 -23
1 -7 -2 -18 -7 -25 -6 -9 -3 -11 13 -8 22 4 22 4 4 -17 -19 -21 -19 -21 0 -14
16 5 17 4 6 -9 -7 -8 -8 -15 -3 -15 5 0 10 -7 11 -15 1 -8 3 -22 4 -30 1 -8 8
-15 17 -16 10 0 11 -3 4 -5 -9 -4 -9 -13 -2 -32 6 -15 10 -29 9 -30 -1 -2 2
-7 6 -10 4 -4 4 -1 -1 7 -6 10 -4 12 4 7 7 -5 10 -14 7 -22 -3 -8 1 -17 9 -20
8 -4 15 -17 15 -30 0 -14 6 -24 15 -24 8 0 12 -6 9 -14 -3 -8 0 -25 7 -38 13
-23 14 -26 19 -50 1 -7 6 -2 10 12 8 24 8 23 9 -8 1 -20 5 -31 11 -27 6 4 10
3 9 -2 -4 -21 2 -33 15 -33 9 0 13 -7 11 -19 -2 -12 5 -26 21 -36 13 -8 24
-25 24 -36 0 -11 5 -17 10 -14 9 6 14 -8 11 -27 0 -5 5 -8 12 -8 11 0 50 -38
52 -50 0 -3 3 -4 8 -2 4 1 6 -4 5 -10 -2 -7 3 -12 10 -10 7 1 12 -8 12 -20 0
-19 2 -20 10 -8 8 12 10 10 10 -8 0 -13 4 -20 10 -17 6 3 10 1 10 -4 0 -6 7
-11 15 -11 9 0 12 -6 9 -15 -5 -11 -2 -13 12 -8 13 5 16 3 12 -9 -4 -10 -1
-15 10 -14 9 0 16 -5 14 -11 -1 -7 3 -13 8 -13 6 0 22 -11 36 -25 14 -14 30
-23 35 -20 5 4 9 -1 9 -9 0 -9 3 -15 8 -15 19 3 33 -2 27 -11 -3 -5 1 -10 9
-10 9 0 16 -4 16 -10 0 -5 9 -10 20 -10 11 0 20 -7 20 -16 0 -8 4 -13 9 -9 5
3 16 -2 24 -10 9 -8 23 -15 32 -15 8 0 18 -7 21 -15 4 -8 10 -12 15 -9 5 3 9
0 9 -7 0 -8 4 -8 15 1 13 11 14 10 9 -4 -6 -16 9 -20 56 -17 10 0 11 -1 3 -5
-18 -8 -16 -25 2 -18 8 4 15 1 15 -5 0 -6 5 -11 11 -11 5 0 8 4 5 9 -4 5 5 4
19 -2 14 -7 25 -15 25 -19 0 -5 11 -8 25 -8 14 0 25 -5 25 -11 0 -5 5 -7 10
-4 5 3 10 0 10 -7 0 -9 3 -9 10 2 8 12 10 12 10 1 0 -9 8 -12 26 -8 17 3 24 1
21 -8 -4 -8 7 -12 31 -13 21 -1 42 -9 48 -17 10 -14 12 -14 18 2 5 13 9 14 15
5 4 -7 17 -14 30 -17 15 -3 19 0 14 8 -4 7 0 6 10 -2 14 -11 17 -11 17 0 0 12
2 12 9 0 5 -8 14 -10 21 -6 9 5 11 4 6 -3 -4 -7 -2 -12 3 -12 6 0 11 5 11 11
0 5 5 7 10 4 6 -4 8 -10 6 -14 -6 -10 25 -8 42 3 6 4 12 3 12 -1 0 -11 41 -10
59 1 10 6 12 6 7 -2 -10 -16 7 -15 23 0 11 10 13 10 7 1 -5 -9 2 -13 26 -13
24 0 29 3 18 10 -12 7 -10 9 7 7 12 0 19 -5 17 -9 -3 -4 -1 -8 5 -8 5 0 13 5
16 10 5 8 12 7 23 -2 12 -10 14 -10 8 0 -4 6 -3 12 3 12 5 0 11 -6 14 -12 3
-10 10 -8 25 5 15 14 22 15 28 6 4 -8 3 -10 -4 -5 -7 4 -12 2 -12 -4 0 -7 7
-9 16 -6 9 3 18 6 20 6 3 0 3 4 -1 9 -3 6 6 8 21 5 14 -3 33 1 41 7 10 9 17 9
21 2 9 -13 45 -8 50 7 3 7 9 7 20 -2 12 -10 14 -10 8 0 -7 12 17 17 79 14 24
-1 26 1 11 7 -26 10 -9 18 36 16 20 -1 35 2 32 7 -3 5 -10 5 -16 2 -7 -4 -8
-2 -4 5 4 6 16 9 26 6 10 -3 25 1 33 9 11 11 17 12 27 3 10 -9 11 -9 6 1 -5 8
1 12 18 12 14 0 26 5 26 10 0 6 9 10 21 10 16 0 20 4 14 18 -5 14 -4 15 6 5
15 -15 33 -17 24 -3 -3 6 0 11 7 11 22 2 32 5 51 13 15 7 16 11 5 17 -10 7 -8
9 7 9 11 0 29 7 39 15 11 8 29 15 40 15 17 0 18 2 6 10 -12 8 -11 10 6 10 12
0 27 7 34 15 7 8 17 12 23 8 5 -3 8 -2 5 3 -3 5 0 14 7 21 11 10 15 10 18 0 3
-7 6 -4 6 7 1 12 6 16 16 12 11 -4 15 0 13 12 -2 9 3 16 10 14 6 -1 12 3 12 9
0 5 5 7 10 4 6 -3 10 4 11 17 0 13 3 18 5 11 6 -14 44 20 44 39 0 9 4 8 10 -2
8 -13 10 -12 10 3 0 10 7 20 15 23 8 4 15 14 16 23 0 11 2 12 6 3 4 -10 9 -7
17 10 7 12 17 22 23 21 6 -1 14 4 17 13 4 10 2 13 -6 8 -7 -5 -8 -3 -4 5 5 7
14 10 21 7 9 -3 12 2 10 15 -2 12 2 19 11 19 8 0 14 10 14 23 0 18 2 19 10 7
8 -13 10 -12 10 3 0 9 6 16 13 15 6 -2 11 3 9 10 -1 6 3 12 9 12 5 0 7 4 4 10
-3 6 -1 10 4 10 6 0 11 11 11 25 0 14 3 24 8 23 4 -2 8 1 9 5 1 5 11 17 23 27
15 13 17 19 8 23 -8 4 -7 6 5 6 9 1 17 7 17 14 0 17 28 75 40 82 5 3 7 12 3
20 -3 10 -1 13 9 10 10 -4 14 4 16 27 2 18 7 35 12 38 6 3 11 19 12 34 2 16 8
30 14 33 6 2 10 15 8 28 -1 14 3 23 9 22 7 -1 12 11 12 28 0 17 6 34 13 38 16
11 16 40 0 32 -7 -4 -6 -1 3 7 9 7 14 19 11 26 -2 7 2 20 10 29 9 12 9 15 1 9
-7 -4 -13 -2 -13 3 0 6 8 11 18 11 13 0 14 2 3 9 -8 5 -10 14 -5 22 4 8 7 28
5 46 -2 28 0 32 16 27 16 -6 16 -5 -2 10 -11 10 -13 14 -5 10 13 -7 13 -5 1 9
-12 15 -11 17 5 17 16 0 17 2 4 10 -12 8 -13 11 -1 19 11 7 11 9 0 14 -12 4
-11 7 1 16 13 9 13 11 1 11 -11 0 -11 3 3 13 15 11 22 29 25 62 1 6 6 3 11 -5
8 -12 10 -11 10 7 0 12 7 28 15 37 9 8 16 18 15 21 -2 29 3 36 10 15 8 -24 8
-23 9 8 1 24 5 31 14 26 7 -5 6 0 -3 11 -8 10 -10 16 -4 12 7 -4 18 1 25 10
10 12 10 14 2 9 -7 -4 -13 -2 -13 3 0 6 8 11 17 11 9 0 13 3 10 7 -4 3 1 12
11 20 9 8 11 12 5 8 -20 -10 -15 6 9 26 14 13 17 19 7 19 -8 1 -3 7 10 14 18
10 20 15 10 19 -10 4 -10 6 -1 6 6 1 12 12 12 26 0 18 -4 23 -16 18 -10 -4
-22 1 -30 11 -7 11 -18 15 -25 10 -9 -5 -10 -2 -6 9 5 14 3 15 -13 4 -11 -6
-20 -16 -20 -20 0 -5 -10 -23 -22 -40 -24 -34 -25 -35 -27 -69 -1 -19 -3 -20
-11 -8 -5 8 -10 11 -11 5 -3 -32 -10 -50 -25 -64 -9 -9 -14 -10 -10 -3 4 6 3
12 -2 12 -4 0 -9 28 -10 63 0 35 -10 85 -21 117 -22 58 -27 85 -11 60 6 -9 10
-10 10 -3 0 7 -9 17 -20 23 -11 6 -18 15 -14 21 3 5 0 16 -6 24 -6 8 -9 19 -5
25 3 5 0 10 -7 10 -9 0 -9 3 2 10 13 8 12 10 -4 10 -16 0 -17 2 -5 17 10 11
10 14 2 9 -8 -4 -13 -1 -13 9 0 9 -4 13 -10 10 -6 -4 -10 8 -10 30 0 20 -4 34
-9 31 -5 -3 -12 1 -15 10 -3 8 -2 12 4 9 6 -3 10 -1 10 4 0 6 -5 11 -11 11 -5
0 -7 5 -4 10 3 6 -1 10 -9 10 -9 0 -15 3 -15 8 1 4 1 18 0 32 -1 20 -3 22 -11
10 -8 -12 -10 -11 -10 7 0 13 -5 22 -12 20 -8 -1 -13 7 -12 21 1 14 -4 22 -15
22 -14 0 -14 2 -1 10 12 8 12 10 -5 10 -17 0 -17 2 -5 10 13 8 12 10 -2 10
-11 0 -18 8 -18 21 0 11 -4 17 -10 14 -5 -3 -10 3 -10 14 0 12 -6 20 -12 18
-7 -1 -12 4 -11 11 2 6 -4 12 -13 12 -8 0 -13 4 -9 10 3 5 -3 18 -14 29 -11
11 -24 29 -31 40 -6 12 -21 21 -33 21 -18 0 -19 2 -7 10 10 6 11 10 3 10 -7 0
-13 7 -13 15 0 8 -3 14 -8 12 -4 -1 -21 13 -38 31 -17 17 -37 32 -43 32 -7 0
-9 5 -5 12 5 8 2 9 -9 5 -11 -4 -17 -1 -17 8 0 7 -9 16 -19 20 -11 3 -22 13
-25 21 -3 8 -10 12 -16 9 -5 -3 -10 1 -10 10 0 9 -4 13 -10 10 -5 -3 -10 2
-11 12 0 10 -3 13 -6 6 -3 -10 -7 -10 -18 0 -7 7 -10 17 -7 22 3 6 -3 3 -14
-5 -10 -8 -16 -11 -12 -6 9 11 -16 36 -36 36 -9 0 -16 7 -16 15 0 9 -6 12 -15
9 -10 -4 -15 0 -16 12 0 18 -1 17 -9 -1 -8 -19 -9 -19 -9 3 -1 13 -5 20 -11
17 -6 -3 -18 1 -27 10 -13 13 -18 14 -24 3 -7 -10 -9 -9 -9 3 0 9 -7 20 -16
23 -8 3 -12 2 -9 -4 4 -6 -5 -5 -19 2 -14 6 -26 15 -26 20 0 4 -11 8 -25 8
-14 0 -25 5 -25 10 0 6 -15 10 -32 10 -25 0 -29 3 -18 10 11 7 7 10 -20 11
-19 1 -39 1 -44 0 -5 -1 -6 4 -3 12 3 7 -1 14 -9 14 -7 0 -10 -5 -7 -10 4 -6
1 -7 -8 -1 -8 5 -23 9 -34 9 -11 1 -19 7 -17 13 2 10 -3 10 -19 2 -11 -7 -23
-9 -27 -6 -3 3 1 6 8 6 7 0 10 3 6 7 -4 4 -28 6 -53 4 -44 -3 -46 -2 -32 16
13 17 13 17 -5 3 -21 -16 -49 -23 -40 -9 3 5 11 6 17 3 7 -4 9 -4 5 1 -11 12
-88 13 -88 1 0 -8 -2 -8 -8 0 -4 5 -25 10 -47 9 -22 -1 -45 3 -52 7 -6 5 -14
5 -18 -2 -4 -6 -20 -8 -42 -4 -29 5 -34 4 -28 -7 8 -12 6 -12 -8 0 -9 7 -17
10 -17 5 0 -5 -5 -2 -10 6 -8 12 -10 12 -10 1z m-1466 -1139 c3 -5 -1 -9 -9
-9 -8 0 -12 4 -9 9 3 4 7 8 9 8 2 0 6 -4 9 -8z m3083 -124 c-3 -8 -6 -5 -6 6
-1 11 2 17 5 13 3 -3 4 -12 1 -19z m113 -18 c0 -5 -5 -10 -11 -10 -5 0 -7 5
-4 10 3 6 8 10 11 10 2 0 4 -4 4 -10z"/>
<path d="M3355 2011 c-3 -5 -2 -12 3 -15 5 -3 9 1 9 9 0 17 -3 19 -12 6z"/>
</g>
</svg>
